<svg xmlns="http://www.w3.org/2000/svg" viewBox="0 0 207.22 199.3"><defs><style>.cls-1{fill:#06f;}.cls-2{fill:#00d9fb;}</style></defs><g id="Layer_2" data-name="Layer 2"><g id="Layer_1-2" data-name="Layer 1"><path class="cls-1" d="M207.08,104.15q0-28.5,0-57a64.65,64.65,0,0,0-.48-7.86A44.73,44.73,0,0,0,162.51,0Q133.1,0,103.68,0T44.84,0A45,45,0,0,0,34.62,1C12.57,6.14-2.19,27.24.27,50.09c2.38,22.17,21.67,39.75,44,39.81q59.29.15,118.58,0c15.77,0,29.32,5.67,41.32,15.58.73.6,1.3,2,2.4,1.43S207.08,105.1,207.08,104.15ZM39.17,63.69A18.57,18.57,0,0,1,20.63,44.87a18.54,18.54,0,0,1,18.9-18.76,18.79,18.79,0,1,1-.36,37.58Zm64.38,0a18.79,18.79,0,1,1,0-37.57c10.61,0,18.65,8.22,18.66,19A18.46,18.46,0,0,1,103.55,63.69Zm63.72,0a18.8,18.8,0,0,1,.43-37.59,18.8,18.8,0,1,1-.43,37.59Z"/><path class="cls-2" d="M199.67,130.24c-9.26-14.18-22.71-20.72-39.53-20.71q-56.73,0-113.47,0c-2,0-4.05.2-6.05,0A64.7,64.7,0,0,1,2.84,94.09c-.62-.54-1.18-1.77-2.17-1.27S.24,94.47.24,95.33c0,19.72-.08,39.44,0,59.16a42.42,42.42,0,0,0,5.87,22c9.11,15.15,22.66,22.58,40.26,22.63,19.32.06,38.64,0,58,0,8.7,0,17.4.06,26.1,0,11.93-.11,23.88.62,35.78-.35C199.36,196.05,217.88,158.13,199.67,130.24ZM39.22,173.12a18.78,18.78,0,0,1,.42-37.55,18.78,18.78,0,1,1-.42,37.55Zm64.39,0a18.78,18.78,0,1,1,18.57-18.75A18.71,18.71,0,0,1,103.61,173.12Zm63.82,0a18.77,18.77,0,0,1,.25-37.54,18.77,18.77,0,1,1-.25,37.54Z"/></g></g></svg>