<svg xmlns="http://www.w3.org/2000/svg" xmlns:xlink="http://www.w3.org/1999/xlink" viewBox="0 0 436.62 474.31"><defs><style>.cls-1{fill:#fdfefe;}.cls-2{fill:url(#linear-gradient);}.cls-3{fill:#5ab9eb;}.cls-4{fill:url(#linear-gradient-2);}</style><linearGradient id="linear-gradient" x1="16.5" y1="-3.97" x2="397.97" y2="377.5" gradientUnits="userSpaceOnUse"><stop offset="0" stop-color="#00d9fb"/><stop offset="1" stop-color="#06f"/></linearGradient><linearGradient id="linear-gradient-2" x1="90.11" y1="209.58" x2="348.62" y2="209.58" xlink:href="#linear-gradient"/></defs><g id="Layer_2" data-name="Layer 2"><g id="Layer_1-2" data-name="Layer 1"><path class="cls-1" d="M345.77,177.22c3.94,4.89,3.64,9.2.08,13.52-32.39,39.11-71.32,66.28-127.16,67.68-44.2-3.06-83.74-22.05-116.37-55.92-17.66-18.31-16.49-27.11,5.64-40.13,6.25-3.69,10.08-.5,14,3.71,12.27,13.12,25.44,25.09,41.07,34.37,53.68,31.83,102.15,18.91,141.83-23.28.28-.33.5-.68.75-1C322.27,156.2,329.06,156.47,345.77,177.22Z"/><path class="cls-2" d="M408.89,0q-190.53-.15-381,0C7.24.09,0,7.36,0,28.08Q0,176,0,323.87C0,343.13,8,351,27.61,351.16c15.88.15,31.78.65,47.61-.15,10.36-.55,12.67,3.49,12.52,13.05-.5,34.36-.18,68.73-.21,103.1,0,11.41,10.28,6.85,15.61,2.15,41.65-36.67,83.63-72.95,125.1-109.82,6.83-6.1,13.43-8.48,22.33-8.43,52.66.3,105.29.18,157.94.13,20.9,0,28.07-7,28.07-27.7q.07-147.87,0-295.78C436.56,6.56,430,.06,408.89,0ZM381.77,306.76c-48.89-.28-97.79,0-146.7-.3-8.88,0-15.55,2.23-22.35,8.4-25.62,23.18-53,47.66-81.17,72.22-1.59-17.94-.47-38.07-.91-56.06-.14-5.8,1.81-17.85-2.63-22.15-3.59-3.47-11.77-2.23-16.19-2.24-18.38,0-36.8-.42-55.16.16-9,.27-12.42-2.14-12.39-11.82q.52-120.38,0-240.72c0-7.88,2-11.09,10.53-11.06q163.65.3,327.29,0c8.94,0,11.44,3.36,11.42,11.84q-.35,120.33.05,240.72C393.63,305,390.05,306.81,381.77,306.76Z"/><path class="cls-3" d="M345.85,190.74c-32.39,39.11-71.32,66.28-127.16,67.68-44.2-3.06-83.74-22.05-116.37-55.92-17.66-18.31-16.49-27.11,5.64-40.13,6.25-3.69,10.08-.5,14,3.71,12.27,13.12,25.44,25.09,41.07,34.37,53.68,31.83,102.15,18.91,141.83-23.28.28-.33.5-.68.75-1,16.64-20,23.43-19.69,40.14,1.06C349.71,182.11,349.41,186.42,345.85,190.74Z"/><path class="cls-4" d="M345.85,190.74c-32.39,39.11-71.32,66.28-127.16,67.68-44.2-3.06-83.74-22.05-116.37-55.92-17.66-18.31-16.49-27.11,5.64-40.13,6.25-3.69,10.08-.5,14,3.71,12.27,13.12,25.44,25.09,41.07,34.37,53.68,31.83,102.15,18.91,141.83-23.28.28-.33.5-.68.75-1,16.64-20,23.43-19.69,40.14,1.06C349.71,182.11,349.41,186.42,345.85,190.74Z"/></g></g></svg>